<svg width="1884" height="1884" viewBox="0 0 1884 1884" fill="none" xmlns="http://www.w3.org/2000/svg">
<path d="M941.979 0C447.75 0 47.0989 400.64 47.0989 894.854V950.047L188.396 1091.34V894.854C188.396 478.671 525.784 141.293 941.979 141.293C1358.17 141.293 1695.56 478.671 1695.56 894.854V1091.34L1836.86 950.047V894.854C1836.86 400.64 1436.21 0 941.979 0ZM941.979 470.976C707.869 470.976 518.088 660.751 518.088 894.854V1462.37C518.088 1487.07 498.038 1507.12 473.335 1507.12C461.48 1507.12 450.12 1502.4 441.737 1494.01L0 1052.29V1252.09L341.835 1593.91C376.717 1628.79 424.006 1648.41 473.335 1648.41C576.076 1648.41 659.385 1565.11 659.385 1462.37V894.854C659.385 738.786 785.907 612.268 941.979 612.268C1098.05 612.268 1224.57 738.786 1224.57 894.854V1462.37C1224.57 1565.11 1307.88 1648.41 1410.62 1648.41C1459.95 1648.41 1507.24 1628.79 1542.12 1593.91L1634.64 1501.4L1775.94 1360.11L1883.96 1252.09V1052.29L1784.06 1152.19L1676.03 1260.21L1534.74 1401.5L1442.22 1494.01C1433.84 1502.4 1422.48 1507.12 1410.62 1507.12C1385.92 1507.12 1365.87 1487.07 1365.87 1462.37V894.854C1365.87 660.751 1176.09 470.976 941.979 470.976ZM941.979 706.463C837.932 706.463 753.583 790.81 753.583 894.854V1462.37C753.583 1617.13 628.102 1742.61 473.335 1742.61C399.023 1742.61 327.736 1713.1 275.188 1660.56L0 1385.33V1585.12L175.287 1760.45C254.333 1839.5 361.548 1883.9 473.335 1883.9C706.135 1883.9 894.88 1695.16 894.88 1462.37V894.854C894.88 868.842 915.966 847.756 941.979 847.756C967.991 847.756 989.077 868.842 989.077 894.854V1462.37C989.077 1695.16 1177.82 1883.9 1410.62 1883.9C1522.41 1883.9 1629.62 1839.5 1708.67 1760.45L1883.96 1585.12V1385.33L1608.77 1660.56C1556.22 1713.1 1484.93 1742.61 1410.62 1742.61C1255.86 1742.61 1130.37 1617.13 1130.37 1462.37V894.854C1130.37 790.81 1046.02 706.463 941.979 706.463ZM941.979 235.488C577.81 235.488 282.594 530.695 282.594 894.854V1185.54L423.89 1326.83V894.854C423.89 608.731 655.848 376.78 941.979 376.78C1228.11 376.78 1460.07 608.731 1460.07 894.854V1326.83L1601.36 1185.54V894.854C1601.36 530.695 1306.15 235.488 941.979 235.488Z" fill="#FF3902"/>
</svg>
